<svg width="112" height="112" viewBox="0 0 112 112" fill="none" xmlns="http://www.w3.org/2000/svg">
<circle cx="56" cy="56" r="55" fill="#D0202A" stroke="#D0202A" stroke-width="2"/>
<path d="M38.1094 55.5H72.8906" stroke="#FFFAE6" stroke-width="2" stroke-linecap="round" stroke-linejoin="round"/>
<path d="M38.1094 43.9062H72.8906" stroke="#FFFAE6" stroke-width="2" stroke-linecap="round" stroke-linejoin="round"/>
<path d="M48.875 72.0625L43.9062 78.6875" stroke="#FFFAE6" stroke-width="2" stroke-linecap="round" stroke-linejoin="round"/>
<path d="M62.125 72.0625L67.0938 78.6875" stroke="#FFFAE6" stroke-width="2" stroke-linecap="round" stroke-linejoin="round"/>
<path d="M67.9219 35.625H43.0781C40.334 35.625 38.1094 37.8496 38.1094 40.5938V67.0938C38.1094 69.8379 40.334 72.0625 43.0781 72.0625H67.9219C70.666 72.0625 72.8906 69.8379 72.8906 67.0938V40.5938C72.8906 37.8496 70.666 35.625 67.9219 35.625Z" stroke="#FFFAE6" stroke-width="2" stroke-linecap="round" stroke-linejoin="round"/>
<path d="M55.5 43.9062V55.5" stroke="#FFFAE6" stroke-width="2" stroke-linecap="round" stroke-linejoin="round"/>
<path d="M46.3906 67.0938C47.7627 67.0938 48.875 65.9815 48.875 64.6094C48.875 63.2373 47.7627 62.125 46.3906 62.125C45.0185 62.125 43.9062 63.2373 43.9062 64.6094C43.9062 65.9815 45.0185 67.0938 46.3906 67.0938Z" fill="#FFFAE6"/>
<path d="M64.6094 67.0938C65.9815 67.0938 67.0938 65.9815 67.0938 64.6094C67.0938 63.2373 65.9815 62.125 64.6094 62.125C63.2373 62.125 62.125 63.2373 62.125 64.6094C62.125 65.9815 63.2373 67.0938 64.6094 67.0938Z" fill="#FFFAE6"/>
</svg>
