<svg width="60" height="60" viewBox="0 0 60 60" fill="none" xmlns="http://www.w3.org/2000/svg">
<circle cx="30" cy="30" r="30" fill="#EEEEEE"/>
<g clip-path="url(#clip0_378_549)">
<path d="M38.9389 29.3038L23.7124 14.1453C23.2136 13.649 22.4089 13.6528 21.9146 14.1546C21.4206 14.6564 21.4249 15.4662 21.9238 15.9629L36.244 30.2192L22.0297 44.5827C21.5345 45.0832 21.5363 45.8925 22.0338 46.3906C22.2835 46.6403 22.6098 46.7644 22.9357 46.7632C23.2608 46.762 23.5848 46.6363 23.8322 46.3864L38.9456 31.1143C39.1841 30.8738 39.3172 30.5474 39.316 30.2077C39.3147 29.868 39.1788 29.5429 38.9389 29.3038Z" fill="black"/>
</g>
<defs>
<clipPath id="clip0_378_549">
<rect width="33.8684" height="33" fill="white" transform="translate(14 47) rotate(-90)"/>
</clipPath>
</defs>
</svg>
