<svg width="112" height="112" viewBox="0 0 112 112" fill="none" xmlns="http://www.w3.org/2000/svg">
<circle cx="56" cy="56" r="55" fill="#D0202A" stroke="#D0202A" stroke-width="2"/>
<path d="M48.875 62.125H37.2812C36.842 62.125 36.4207 61.9505 36.1101 61.6399C35.7995 61.3293 35.625 60.908 35.625 60.4688V50.5312C35.625 50.092 35.7995 49.6707 36.1101 49.3601C36.4207 49.0495 36.842 48.875 37.2812 48.875H48.875V37.2812C48.875 36.842 49.0495 36.4207 49.3601 36.1101C49.6707 35.7995 50.092 35.625 50.5312 35.625H60.4688C60.908 35.625 61.3293 35.7995 61.6399 36.1101C61.9505 36.4207 62.125 36.842 62.125 37.2812V48.875H73.7188C74.158 48.875 74.5793 49.0495 74.8899 49.3601C75.2005 49.6707 75.375 50.092 75.375 50.5312V60.4688C75.375 60.908 75.2005 61.3293 74.8899 61.6399C74.5793 61.9505 74.158 62.125 73.7188 62.125H62.125V73.7188C62.125 74.158 61.9505 74.5793 61.6399 74.8899C61.3293 75.2005 60.908 75.375 60.4688 75.375H50.5312C50.092 75.375 49.6707 75.2005 49.3601 74.8899C49.0495 74.5793 48.875 74.158 48.875 73.7188V62.125Z" stroke="#FFFAE6" stroke-width="2" stroke-linecap="round" stroke-linejoin="round"/>
</svg>
